<svg width="100" height="100" viewBox="0 0 100 100" fill="none" xmlns="http://www.w3.org/2000/svg">
<g id="location_on">
<path id="icon" d="M50 91.6667C49.0278 91.6667 48.1944 91.3889 47.5 90.8333C46.8055 90.2778 46.2847 89.5486 45.9375 88.6458C44.618 84.7569 42.9514 81.1111 40.9375 77.7083C38.993 74.3055 36.25 70.3125 32.7083 65.7291C29.1666 61.1458 26.2847 56.7708 24.0625 52.6041C21.9097 48.4375 20.8333 43.4028 20.8333 37.5C20.8333 29.375 23.6458 22.5 29.2708 16.875C34.9653 11.1805 41.875 8.33331 50 8.33331C58.125 8.33331 65 11.1805 70.625 16.875C76.3194 22.5 79.1666 29.375 79.1666 37.5C79.1666 43.8194 77.9514 49.0972 75.5208 53.3333C73.1597 57.5 70.4166 61.6319 67.2916 65.7291C63.5416 70.7291 60.6944 74.8958 58.75 78.2291C56.875 81.493 55.3125 84.9653 54.0625 88.6458C53.7153 89.618 53.1597 90.3819 52.3958 90.9375C51.7014 91.4236 50.9028 91.6667 50 91.6667ZM50 47.9166C52.9166 47.9166 55.3819 46.9097 57.3958 44.8958C59.4097 42.8819 60.4166 40.4166 60.4166 37.5C60.4166 34.5833 59.4097 32.118 57.3958 30.1041C55.3819 28.0903 52.9166 27.0833 50 27.0833C47.0833 27.0833 44.618 28.0903 42.6041 30.1041C40.5903 32.118 39.5833 34.5833 39.5833 37.5C39.5833 40.4166 40.5903 42.8819 42.6041 44.8958C44.618 46.9097 47.0833 47.9166 50 47.9166Z" fill="#1D1B20"/>
</g>
</svg>
